<svg xmlns="http://www.w3.org/2000/svg" xmlns:xlink="http://www.w3.org/1999/xlink" preserveAspectRatio="xMidYMid" width="33" height="25" viewBox="0 0 33 25">
  <defs>
    <style>

      .cls-2 {
        fill: #ffffff;
      }
    </style>
  </defs>
  <path d="M26.215,15.691 C21.783,17.050 14.842,17.144 13.276,22.725 C12.640,24.991 9.284,24.027 9.923,21.749 C11.341,16.694 15.501,14.635 20.053,13.502 C24.725,12.339 30.356,11.868 29.567,5.402 C29.281,3.058 32.760,3.087 33.044,5.402 C33.697,10.749 30.974,14.232 26.215,15.691 ZM3.485,21.318 C3.243,23.645 -0.237,23.671 0.008,21.318 C0.618,15.480 4.721,12.553 9.677,10.803 C13.803,9.346 21.908,8.572 19.776,2.217 C19.025,-0.021 22.385,-0.976 23.129,1.240 C27.993,15.738 4.652,10.151 3.485,21.318 Z" id="path-1" class="cls-2" fill-rule="evenodd"/>
</svg>
