<?xml version="1.0" encoding="utf-8"?>
<svg xmlns="http://www.w3.org/2000/svg"
	xmlns:xlink="http://www.w3.org/1999/xlink"
	width="171px" height="40px">
<path fill="rgb(233,192,45)" fill-rule="evenodd" d="M 170.23 29.16C 169.46 29.16 167.32 29.16 167.32 29.16 167.32 29.16 166.86 29.14 166.74 28.63 166.63 28.11 165.5 20.44 165.5 20.44 165.5 20.44 160.96 29.07 160.96 29.07 160.96 29.07 160.77 29.41 160.48 29.41 160.18 29.41 160.33 29.41 160.04 29.41 159.75 29.41 159.55 29.07 159.55 29.07 159.55 29.07 155.01 20.44 155.01 20.44 155.01 20.44 153.89 28.11 153.78 28.63 153.66 29.14 153.19 29.16 153.19 29.16 153.19 29.16 151.06 29.16 150.29 29.16 149.52 29.16 149.67 28.37 149.67 28.37 149.67 28.37 152.6 10.84 152.6 10.84 152.6 10.84 152.71 10.12 153.34 10.12 153.98 10.12 154.3 10.87 154.43 11.13 154.56 11.39 160.18 21.87 160.18 21.87 160.18 21.87 160.33 21.87 160.33 21.87 160.33 21.87 165.96 11.39 166.09 11.13 166.22 10.87 166.54 10.12 167.18 10.12 167.81 10.12 167.92 10.84 167.92 10.84 167.92 10.84 170.85 28.37 170.85 28.37 170.85 28.37 171 29.16 170.23 29.16ZM 138.77 29.4C 133.44 29.4 129.11 25.09 129.11 19.77 129.11 14.45 133.44 10.14 138.77 10.14 144.1 10.14 148.42 14.45 148.42 19.77 148.42 25.09 144.1 29.4 138.77 29.4ZM 138.77 14.38C 135.79 14.38 133.37 16.8 133.37 19.77 133.37 22.75 135.79 25.16 138.77 25.16 141.75 25.16 144.17 22.75 144.17 19.77 144.17 16.8 141.75 14.38 138.77 14.38ZM 121.97 25.16C 123.31 25.16 124.53 24.69 125.48 23.9 125.48 23.9 125.86 23.6 126.22 23.97 126.57 24.35 128.33 26.12 128.33 26.12 128.33 26.12 128.66 26.48 128.28 26.85 126.56 28.43 124.26 29.4 121.73 29.4 116.4 29.4 112.08 25.09 112.08 19.77 112.08 14.45 116.4 10.14 121.73 10.14 124.24 10.14 126.53 11.09 128.24 12.66 128.59 13.06 128.2 13.41 128.2 13.41 128.2 13.41 126.66 14.99 126.27 15.4 125.88 15.82 125.51 15.49 125.51 15.49 124.55 14.69 123.32 14.2 121.97 14.2 118.94 14.2 116.48 16.66 116.48 19.68 116.48 22.71 118.94 25.16 121.97 25.16ZM 101.47 29.4C 96.14 29.4 91.82 25.09 91.82 19.77 91.82 14.45 96.14 10.14 101.47 10.14 106.8 10.14 111.12 14.45 111.12 19.77 111.12 25.09 106.8 29.4 101.47 29.4ZM 101.47 14.38C 98.49 14.38 96.07 16.8 96.07 19.77 96.07 22.75 98.49 25.16 101.47 25.16 104.45 25.16 106.87 22.75 106.87 19.77 106.87 16.8 104.45 14.38 101.47 14.38ZM 88.93 29.28C 88.36 29.28 85.91 29.28 85.91 29.28 85.91 29.28 85.31 29.23 85.31 28.58 85.31 27.93 85.31 11.88 85.31 11.22 85.31 10.57 85.91 10.52 85.91 10.52 85.91 10.52 88.36 10.52 88.93 10.52 89.51 10.52 89.56 11.15 89.56 11.15 89.56 11.15 89.56 28.66 89.56 28.66 89.56 28.66 89.51 29.28 88.93 29.28ZM 78.96 21.76C 78.96 21.76 82.18 27.76 82.37 28.06 82.55 28.36 82.72 28.65 82.59 28.92 82.46 29.19 82.05 29.17 82.05 29.17 82.05 29.17 79.52 29.17 78.84 29.17 78.16 29.17 77.91 28.57 77.91 28.57 77.91 28.57 74.51 21.83 74.51 21.83 74.51 21.83 72.64 21.83 72.64 21.83 72.64 25.25 72.64 28.54 72.64 28.54 72.64 28.54 72.59 29.17 72.01 29.17 71.43 29.17 68.99 29.17 68.99 29.17 68.99 29.17 68.39 29.12 68.39 28.47 68.39 27.81 68.39 14.36 68.39 14.36 68.39 14.36 68.39 11.01 68.39 11.01 68.39 11.01 68.4 10.41 69.11 10.41 69.83 10.41 76.39 10.41 76.39 10.41 79.78 10.41 82.86 12.4 82.86 16.27 82.86 19.92 79.18 21.44 79 21.51 78.82 21.58 78.96 21.76 78.96 21.76ZM 76.72 14.24C 76.16 14.24 72.64 14.24 72.64 14.24 72.64 14.24 72.64 18.41 72.64 18.41 72.64 18.41 72.72 18.41 72.72 18.41 72.72 18.41 75.87 18.39 76.72 18.39 77.56 18.39 78.68 17.55 78.68 16.21 78.68 14.86 77.29 14.24 76.72 14.24ZM 65.39 14.36C 64.83 14.36 61.66 14.36 61.66 14.36 61.66 14.36 61.66 28.54 61.66 28.54 61.66 28.54 61.61 29.17 61.03 29.17 60.45 29.17 58.01 29.17 58.01 29.17 58.01 29.17 57.4 29.12 57.4 28.47 57.4 27.81 57.4 14.36 57.4 14.36 57.4 14.36 53.72 14.36 53.72 14.36 53.72 14.36 53.04 14.37 53.04 13.63 53.04 12.88 53.04 11.01 53.04 11.01 53.04 11.01 53.05 10.41 53.77 10.41 54.49 10.41 65.41 10.41 65.41 10.41 65.41 10.41 66.02 10.49 66.02 11.03 66.02 11.57 66.02 13.78 66.02 13.78 66.02 13.78 65.95 14.36 65.39 14.36ZM 20.05 40C 8.98 40-0 31.05-0 20-0 8.95 8.98 0 20.05 0 31.12 0 40.1 8.95 40.1 20 40.1 31.05 31.12 40 20.05 40ZM 30.01 21.66C 30.01 21.66 23.29 21.66 23.29 21.66 23.29 21.66 23.29 8.34 23.29 8.34 23.29 8.34 16.56 8.34 16.56 8.34 16.56 8.34 16.56 21.66 16.56 21.66 16.56 21.66 9.83 21.66 9.83 21.66 9.83 21.66 9.83 28.49 9.83 28.49 9.83 28.49 16.56 28.49 16.56 28.49 16.56 28.49 23.29 28.49 23.29 28.49 23.29 28.49 30.01 28.49 30.01 28.49 30.01 28.49 30.01 21.66 30.01 21.66Z"/>
</svg>