<svg xmlns="http://www.w3.org/2000/svg" xmlns:xlink="http://www.w3.org/1999/xlink" preserveAspectRatio="xMidYMid" width="151" height="29" viewBox="0 0 151 29">
  <defs>
    <style>

      .cls-2 {
        fill: #ffffff;
        stroke: #ffffff;
        stroke-width: 1px;
        fill-opacity: 0;
      }
    </style>
  </defs>
  <path d="M144.359,28.233 C144.359,28.233 144.359,20.974 144.359,20.974 C144.359,20.974 143.069,20.974 143.069,20.974 C143.069,20.974 139.619,28.233 139.619,28.233 C139.619,28.233 132.330,28.233 132.330,28.233 C132.330,28.233 137.129,19.864 137.129,19.864 C134.939,18.784 133.679,16.894 133.679,14.104 C133.679,9.364 137.369,7.234 142.949,7.234 C142.949,7.234 151.259,7.234 151.259,7.234 C151.259,7.234 151.259,28.233 151.259,28.233 C151.259,28.233 144.359,28.233 144.359,28.233 ZM144.359,12.274 C144.359,12.274 142.709,12.274 142.709,12.274 C141.299,12.274 140.489,12.814 140.489,14.104 C140.489,15.424 141.299,15.934 142.709,15.934 C142.709,15.934 144.359,15.934 144.359,15.934 C144.359,15.934 144.359,12.274 144.359,12.274 ZM122.879,20.044 C122.879,20.044 117.719,20.044 117.719,20.044 C117.719,20.044 117.719,28.233 117.719,28.233 C117.719,28.233 110.820,28.233 110.820,28.233 C110.820,28.233 110.820,7.234 110.820,7.234 C110.820,7.234 117.719,7.234 117.719,7.234 C117.719,7.234 117.719,14.524 117.719,14.524 C117.719,14.524 122.879,14.524 122.879,14.524 C122.879,14.524 122.879,7.234 122.879,7.234 C122.879,7.234 129.779,7.234 129.779,7.234 C129.779,7.234 129.779,28.233 129.779,28.233 C129.779,28.233 122.879,28.233 122.879,28.233 C122.879,28.233 122.879,20.044 122.879,20.044 ZM100.019,18.184 C100.019,18.184 94.860,28.233 94.860,28.233 C94.860,28.233 88.080,28.233 88.080,28.233 C88.080,28.233 88.080,7.234 88.080,7.234 C88.080,7.234 94.800,7.234 94.800,7.234 C94.800,7.234 94.800,17.284 94.800,17.284 C94.800,17.284 99.959,7.234 99.959,7.234 C99.959,7.234 106.739,7.234 106.739,7.234 C106.739,7.234 106.739,28.233 106.739,28.233 C106.739,28.233 100.019,28.233 100.019,28.233 C100.019,28.233 100.019,18.184 100.019,18.184 ZM97.410,5.494 C94.500,5.494 92.640,3.814 92.250,1.174 C92.250,1.174 96.000,0.515 96.000,0.515 C96.120,1.654 96.630,2.194 97.410,2.194 C98.189,2.194 98.699,1.654 98.819,0.515 C98.819,0.515 102.569,1.174 102.569,1.174 C102.179,3.814 100.319,5.494 97.410,5.494 ZM69.480,7.234 C69.480,7.234 84.509,7.234 84.509,7.234 C84.509,7.234 84.509,12.514 84.509,12.514 C84.509,12.514 76.410,12.514 76.410,12.514 C76.410,12.514 76.410,14.824 76.410,14.824 C76.410,14.824 83.459,14.824 83.459,14.824 C83.459,14.824 83.459,20.104 83.459,20.104 C83.459,20.104 76.410,20.104 76.410,20.104 C76.410,20.104 76.410,22.954 76.410,22.954 C76.410,22.954 84.779,22.954 84.779,22.954 C84.779,22.954 84.779,28.233 84.779,28.233 C84.779,28.233 69.480,28.233 69.480,28.233 C69.480,28.233 69.480,7.234 69.480,7.234 ZM58.320,25.474 C58.320,25.474 58.320,28.233 58.320,28.233 C58.320,28.233 51.720,28.233 51.720,28.233 C51.720,28.233 51.720,25.474 51.720,25.474 C46.740,25.024 43.560,22.264 43.560,17.734 C43.560,13.204 46.740,10.444 51.720,9.994 C51.720,9.994 51.720,7.234 51.720,7.234 C51.720,7.234 58.320,7.234 58.320,7.234 C58.320,7.234 58.320,9.994 58.320,9.994 C63.300,10.444 66.480,13.204 66.480,17.734 C66.480,22.264 63.300,25.024 58.320,25.474 ZM51.720,15.124 C50.700,15.304 49.860,16.054 49.860,17.734 C49.860,19.414 50.700,20.164 51.720,20.344 C51.720,20.344 51.720,15.124 51.720,15.124 ZM58.320,15.124 C58.320,15.124 58.320,20.344 58.320,20.344 C59.340,20.164 60.180,19.414 60.180,17.734 C60.180,16.054 59.340,15.304 58.320,15.124 ZM30.990,28.593 C24.541,28.593 20.521,24.004 20.521,17.734 C20.521,11.464 24.541,6.874 30.990,6.874 C37.440,6.874 41.460,11.464 41.460,17.734 C41.460,24.004 37.440,28.593 30.990,28.593 ZM30.990,12.454 C28.801,12.454 27.481,14.434 27.481,17.734 C27.481,21.034 28.801,23.014 30.990,23.014 C33.180,23.014 34.500,21.034 34.500,17.734 C34.500,14.434 33.180,12.454 30.990,12.454 ZM12.720,28.233 C12.720,28.233 9.060,21.364 9.060,21.364 C9.060,21.364 7.410,23.614 7.410,23.614 C7.410,23.614 7.410,28.233 7.410,28.233 C7.410,28.233 0.511,28.233 0.511,28.233 C0.511,28.233 0.511,7.234 0.511,7.234 C0.511,7.234 7.410,7.234 7.410,7.234 C7.410,7.234 7.410,14.674 7.410,14.674 C7.410,14.674 11.940,7.234 11.940,7.234 C11.940,7.234 19.380,7.234 19.380,7.234 C19.380,7.234 13.050,15.904 13.050,15.904 C13.050,15.904 20.310,28.233 20.310,28.233 C20.310,28.233 12.720,28.233 12.720,28.233 Z" id="path-1" class="cls-2" fill-rule="evenodd"/>
</svg>
