<svg xmlns="http://www.w3.org/2000/svg" xmlns:xlink="http://www.w3.org/1999/xlink" preserveAspectRatio="xMidYMid" width="66" height="247" viewBox="0 0 66 247">
  <defs>
    <style>

      .cls-3 {
        stroke: #ffffff;
        stroke-width: 5px;
        fill: none;
      }

      .cls-4 {
        stroke: #ffffff;
        stroke-width: 3px;
        fill: none;
      }

      .cls-6 {
        stroke: #ffffff;
        stroke-width: 2px;
        fill: none;
      }
    </style>
  </defs>
  <g id="фонар-copy-2">
    <path d="M63.500,248.500 C63.500,248.500 63.500,119.672 63.500,91.500 C63.500,63.328 64.001,62.957 59.174,58.108 C54.347,53.258 27.384,24.648 27.384,24.648 " id="path-1" class="cls-3" fill-rule="evenodd"/>
    <path d="M15.732,2.298 C15.732,2.298 31.557,17.928 31.557,17.928 C32.623,18.981 32.627,20.690 31.565,21.746 C31.565,21.746 21.955,31.302 21.955,31.302 C20.894,32.358 19.169,32.360 18.103,31.308 C18.103,31.308 2.278,15.678 2.278,15.678 C1.212,14.625 1.209,12.916 2.270,11.860 C2.270,11.860 11.880,2.304 11.880,2.304 C12.942,1.248 14.666,1.246 15.732,2.298 Z" id="path-2" class="cls-4" fill-rule="evenodd"/>
    <path d="M7.443,11.996 C7.443,11.996 7.964,11.445 7.964,11.445 C7.964,11.445 23.860,27.414 23.860,27.414 C23.860,27.414 23.338,27.965 23.338,27.965 C23.338,27.965 7.443,11.996 7.443,11.996 Z" id="path-3" class="cls-3" fill-rule="evenodd"/>
    <path d="M58.000,248.000 C58.000,248.000 58.000,119.172 58.000,91.000 C58.000,62.828 58.716,63.738 53.889,58.889 C49.063,54.040 22.856,26.190 22.856,26.190 " id="path-4" class="cls-6" fill-rule="evenodd"/>
  </g>
</svg>
