<svg xmlns="http://www.w3.org/2000/svg" xmlns:xlink="http://www.w3.org/1999/xlink" preserveAspectRatio="xMidYMid" width="18" height="68" viewBox="0 0 18 68">
  <defs>
    <style>

      .cls-2 {
        fill: #ffffff;
      }
    </style>
  </defs>
  <path d="M9.052,32.834 C3.429,32.834 0.004,29.160 0.004,23.936 C0.004,20.537 1.504,17.538 4.528,15.913 C4.528,15.913 6.653,20.737 6.653,20.737 C5.453,21.262 4.653,22.336 4.653,23.711 C4.653,25.511 6.103,27.035 9.052,27.035 C12.002,27.035 13.451,25.511 13.451,23.711 C13.451,22.336 12.651,21.262 11.452,20.737 C11.452,20.737 13.576,15.913 13.576,15.913 C16.600,17.538 18.100,20.587 18.100,23.986 C18.100,29.210 14.676,32.834 9.052,32.834 ZM4.903,15.034 C4.903,15.034 0.304,15.034 0.304,15.034 C0.304,15.034 0.304,-0.012 0.304,-0.012 C0.304,-0.012 4.903,-0.012 4.903,-0.012 C4.903,-0.012 4.903,4.637 4.903,4.637 C4.903,4.637 17.800,4.637 17.800,4.637 C17.800,4.637 17.800,10.385 17.800,10.385 C17.800,10.385 4.903,10.385 4.903,10.385 C4.903,10.385 4.903,15.034 4.903,15.034 ZM9.052,34.738 C14.276,34.738 18.100,38.087 18.100,43.461 C18.100,48.834 14.276,52.183 9.052,52.183 C3.829,52.183 0.004,48.834 0.004,43.461 C0.004,38.087 3.829,34.738 9.052,34.738 ZM9.052,46.385 C11.802,46.385 13.451,45.285 13.451,43.461 C13.451,41.636 11.802,40.536 9.052,40.536 C6.303,40.536 4.653,41.636 4.653,43.461 C4.653,45.285 6.303,46.385 9.052,46.385 ZM6.378,53.887 C10.552,53.887 12.451,56.911 12.451,61.385 C12.451,61.385 12.451,62.585 12.451,62.585 C12.451,62.585 17.800,62.585 17.800,62.585 C17.800,62.585 17.800,68.334 17.800,68.334 C17.800,68.334 0.304,68.334 0.304,68.334 C0.304,68.334 0.304,61.385 0.304,61.385 C0.304,56.911 2.204,53.887 6.378,53.887 ZM4.653,62.585 C4.653,62.585 8.103,62.585 8.103,62.585 C8.103,62.585 8.103,61.560 8.103,61.560 C8.103,60.410 7.653,59.686 6.378,59.686 C5.078,59.686 4.653,60.410 4.653,61.560 C4.653,61.560 4.653,62.585 4.653,62.585 Z" id="path-1" class="cls-2" fill-rule="evenodd"/>
</svg>
