<svg xmlns="http://www.w3.org/2000/svg" xmlns:xlink="http://www.w3.org/1999/xlink" preserveAspectRatio="xMidYMid" width="24" height="300" viewBox="0 0 24 300">
  <defs>
    <style>

      .cls-2 {
        fill: #ffffff;
      }
    </style>
  </defs>
  <path d="M14.351,209.124 C8.727,209.124 5.303,205.450 5.303,200.226 C5.303,196.827 6.803,193.828 9.827,192.204 C9.827,192.204 11.951,197.027 11.951,197.027 C10.752,197.552 9.952,198.627 9.952,200.002 C9.952,201.801 11.402,203.326 14.351,203.326 C17.300,203.326 18.750,201.801 18.750,200.002 C18.750,198.627 17.950,197.552 16.750,197.027 C16.750,197.027 18.875,192.204 18.875,192.204 C21.899,193.828 23.399,196.877 23.399,200.277 C23.399,205.500 19.974,209.124 14.351,209.124 ZM14.351,191.175 C8.727,191.175 5.303,187.501 5.303,182.277 C5.303,178.878 6.803,175.878 9.827,174.254 C9.827,174.254 11.951,179.078 11.951,179.078 C10.752,179.603 9.952,180.677 9.952,182.052 C9.952,183.851 11.402,185.376 14.351,185.376 C17.300,185.376 18.750,183.851 18.750,182.052 C18.750,180.677 17.950,179.603 16.750,179.078 C16.750,179.078 18.875,174.254 18.875,174.254 C21.899,175.878 23.399,178.928 23.399,182.327 C23.399,187.551 19.974,191.175 14.351,191.175 ZM5.688,156.000 C5.688,156.000 22.687,156.000 22.687,156.000 C22.687,156.000 22.687,162.000 22.687,162.000 C22.687,162.000 14.726,162.152 14.726,162.152 C14.726,162.152 22.687,166.000 22.687,166.000 C22.687,166.000 22.687,172.000 22.687,172.000 C22.687,172.000 5.688,172.000 5.688,172.000 C5.688,172.000 5.688,166.000 5.688,166.000 C5.688,166.000 13.688,166.000 13.688,166.000 C13.688,166.000 5.688,162.000 5.688,162.000 C5.688,162.000 5.688,156.000 5.688,156.000 ZM14.351,153.900 C9.127,153.900 5.303,150.551 5.303,145.177 C5.303,139.804 9.127,136.454 14.351,136.454 C19.575,136.454 23.399,139.804 23.399,145.177 C23.399,150.551 19.575,153.900 14.351,153.900 ZM14.351,142.253 C11.602,142.253 9.952,143.353 9.952,145.177 C9.952,147.002 11.602,148.101 14.351,148.101 C17.100,148.101 18.750,147.002 18.750,145.177 C18.750,143.353 17.100,142.253 14.351,142.253 ZM5.688,103.000 C5.688,103.000 22.687,98.000 22.687,98.000 C22.687,98.000 22.687,104.000 22.687,104.000 C22.687,104.000 20.688,104.000 20.688,104.000 C20.688,104.000 20.688,109.000 20.688,109.000 C20.688,109.000 22.687,110.000 22.687,110.000 C22.687,110.000 22.687,116.000 22.687,116.000 C22.687,116.000 5.688,110.000 5.688,110.000 C5.688,110.000 5.688,103.000 5.688,103.000 ZM16.687,108.000 C16.687,108.000 16.687,105.000 16.687,105.000 C16.687,105.000 10.802,106.678 10.802,106.678 C10.802,106.678 16.687,108.000 16.687,108.000 ZM5.688,124.000 C5.688,124.000 5.688,118.000 5.688,118.000 C5.688,118.000 22.687,118.000 22.687,118.000 C22.687,118.000 22.687,124.000 22.687,124.000 C22.687,124.000 16.687,124.000 16.687,124.000 C16.687,124.000 16.687,128.000 16.687,128.000 C16.687,128.000 22.687,128.000 22.687,128.000 C22.687,128.000 22.687,134.000 22.687,134.000 C22.687,134.000 5.688,134.000 5.688,134.000 C5.688,134.000 5.688,128.000 5.688,128.000 C5.688,128.000 11.687,128.000 11.687,128.000 C11.687,128.000 11.687,124.000 11.687,124.000 C11.687,124.000 5.688,124.000 5.688,124.000 ZM22.687,96.000 C22.687,96.000 17.688,96.000 17.688,96.000 C17.713,95.625 17.688,95.375 17.688,95.000 C17.688,93.725 17.037,93.000 15.688,93.000 C15.688,93.000 5.688,93.000 5.688,93.000 C5.688,93.000 5.688,78.000 5.688,78.000 C5.688,78.000 22.687,78.000 22.687,78.000 C22.687,78.000 22.687,84.000 22.687,84.000 C22.687,84.000 10.688,84.000 10.688,84.000 C10.688,84.000 10.688,88.000 10.688,88.000 C10.688,88.000 17.325,87.828 17.325,87.828 C21.274,87.828 22.687,88.776 22.687,94.000 C22.687,94.675 22.787,95.400 22.687,96.000 ZM5.688,69.000 C5.688,69.000 11.687,69.000 11.687,69.000 C11.687,69.000 11.652,68.053 11.652,68.053 C11.652,63.930 13.751,61.455 17.375,61.455 C20.999,61.455 22.687,63.876 22.687,68.000 C22.687,68.000 22.687,75.000 22.687,75.000 C22.687,75.000 5.688,75.000 5.688,75.000 C5.688,75.000 5.688,69.000 5.688,69.000 ZM15.688,69.000 C15.688,69.000 18.688,69.000 18.688,69.000 C18.688,69.000 18.688,68.000 18.688,68.000 C18.688,67.050 18.262,66.032 17.688,66.000 C15.700,65.891 15.688,67.050 15.688,68.000 C15.688,68.000 15.688,69.000 15.688,69.000 ZM5.688,53.000 C5.688,53.000 11.687,53.000 11.687,53.000 C11.687,53.000 11.687,49.000 11.687,49.000 C11.687,49.000 5.688,49.000 5.688,49.000 C5.688,49.000 5.688,43.000 5.688,43.000 C5.688,43.000 22.687,43.000 22.687,43.000 C22.687,43.000 22.687,49.000 22.687,49.000 C22.687,49.000 16.687,49.000 16.687,49.000 C16.687,49.000 16.687,53.000 16.687,53.000 C16.687,53.000 22.687,53.000 22.687,53.000 C22.687,53.000 22.687,59.000 22.687,59.000 C22.687,59.000 5.688,59.000 5.688,59.000 C5.688,59.000 5.688,53.000 5.688,53.000 ZM5.603,33.954 C5.603,33.954 11.652,33.954 11.652,33.954 C11.652,33.954 11.652,32.629 11.652,32.629 C11.652,28.505 13.751,26.031 17.375,26.031 C20.999,26.031 22.687,28.876 22.687,33.000 C22.687,33.000 22.687,40.000 22.687,40.000 C22.687,40.000 5.688,40.000 5.688,40.000 C5.688,40.000 5.603,33.954 5.603,33.954 ZM15.688,33.000 C15.688,33.000 15.688,34.000 15.688,34.000 C15.688,34.000 18.688,34.000 18.688,34.000 C18.688,34.000 18.688,33.000 18.688,33.000 C18.688,32.050 18.687,31.000 17.688,31.000 C15.563,31.000 15.688,32.050 15.688,33.000 ZM5.688,19.000 C5.688,19.000 22.687,19.000 22.687,19.000 C22.687,19.000 22.687,25.000 22.687,25.000 C22.687,25.000 5.688,25.000 5.688,25.000 C5.688,25.000 5.688,19.000 5.688,19.000 ZM5.688,10.000 C5.688,10.000 13.688,10.000 13.688,10.000 C13.688,10.000 5.688,6.000 5.688,6.000 C5.688,6.000 5.688,-0.000 5.688,-0.000 C5.688,-0.000 22.687,-0.000 22.687,-0.000 C22.687,-0.000 22.687,6.000 22.687,6.000 C22.687,6.000 14.687,6.000 14.687,6.000 C14.687,6.000 22.687,10.000 22.687,10.000 C22.687,10.000 22.687,16.000 22.687,16.000 C22.687,16.000 5.688,16.000 5.688,16.000 C5.688,16.000 5.688,10.000 5.688,10.000 ZM0.554,12.153 C0.554,12.153 0.004,9.029 0.004,9.029 C0.954,8.929 1.404,8.504 1.404,7.854 C1.404,7.204 0.954,6.779 0.004,6.679 C0.004,6.679 0.554,3.555 0.554,3.555 C2.754,3.880 4.153,5.430 4.153,7.854 C4.153,10.279 2.754,11.828 0.554,12.153 ZM22.687,239.000 C22.687,239.000 20.688,239.000 20.688,239.000 C20.313,243.149 18.125,245.474 14.351,245.474 C10.577,245.474 8.062,243.149 7.687,239.000 C7.687,239.000 5.688,239.000 5.688,239.000 C5.688,239.000 5.688,233.000 5.688,233.000 C5.688,233.000 7.687,233.000 7.687,233.000 C8.062,228.851 10.577,226.378 14.351,226.378 C18.125,226.378 20.313,228.851 20.688,233.000 C20.688,233.000 22.687,233.000 22.687,233.000 C22.687,233.000 22.687,239.000 22.687,239.000 ZM14.351,231.627 C12.951,231.627 11.837,232.150 11.687,233.000 C11.687,233.000 16.687,233.000 16.687,233.000 C16.538,232.150 15.456,231.627 14.351,231.627 ZM11.687,239.000 C11.837,239.850 12.951,240.225 14.351,240.225 C15.560,240.225 16.538,239.850 16.687,239.000 C16.687,239.000 11.687,239.000 11.687,239.000 ZM22.687,211.000 C22.687,211.000 22.687,224.000 22.687,224.000 C22.687,224.000 5.688,224.000 5.688,224.000 C5.688,224.000 5.688,211.000 5.688,211.000 C5.688,211.000 9.687,211.000 9.687,211.000 C9.687,211.000 9.687,218.000 9.687,218.000 C9.687,218.000 11.687,218.000 11.687,218.000 C11.687,218.000 11.687,213.000 11.687,213.000 C11.687,213.000 16.687,213.000 16.687,213.000 C16.687,213.000 16.687,218.000 16.687,218.000 C16.687,218.000 18.688,218.000 18.688,218.000 C18.688,218.000 18.688,211.000 18.688,211.000 C18.688,211.000 22.687,211.000 22.687,211.000 ZM14.351,247.228 C19.575,247.228 23.399,250.577 23.399,255.951 C23.399,261.324 19.575,264.674 14.351,264.674 C9.127,264.674 5.303,261.324 5.303,255.951 C5.303,250.577 9.127,247.228 14.351,247.228 ZM14.687,259.000 C17.437,259.000 18.750,257.775 18.750,255.951 C18.750,254.126 17.437,253.000 14.687,253.000 C11.938,253.000 9.687,253.712 9.687,256.000 C9.687,258.693 11.938,259.000 14.687,259.000 ZM11.687,266.000 C15.861,266.000 17.750,269.401 17.750,273.875 C17.750,273.875 17.688,275.000 17.688,275.000 C17.688,275.000 22.687,275.000 22.687,275.000 C22.687,275.000 22.687,281.000 22.687,281.000 C22.687,281.000 5.688,281.000 5.688,281.000 C5.688,281.000 5.688,274.000 5.688,274.000 C5.688,269.526 7.514,266.000 11.687,266.000 ZM9.687,275.000 C9.687,275.000 13.688,275.000 13.688,275.000 C13.688,275.000 13.688,274.000 13.688,274.000 C13.688,272.850 12.962,272.000 11.687,272.000 C10.388,272.000 9.687,272.850 9.687,274.000 C9.687,274.000 9.687,275.000 9.687,275.000 ZM22.687,290.000 C22.687,290.000 10.688,290.000 10.688,290.000 C10.688,290.000 10.688,294.000 10.688,294.000 C10.688,294.000 22.687,294.000 22.687,294.000 C22.687,294.000 22.687,300.000 22.687,300.000 C22.687,300.000 5.688,300.000 5.688,300.000 C5.688,300.000 5.688,284.000 5.688,284.000 C5.688,284.000 22.687,284.000 22.687,284.000 C22.687,284.000 22.687,290.000 22.687,290.000 Z" id="path-1" class="cls-2" fill-rule="evenodd"/>
</svg>
