<?xml version="1.0" encoding="utf-8"?>
<svg xmlns="http://www.w3.org/2000/svg"
	xmlns:xlink="http://www.w3.org/1999/xlink"
	width="22px" height="21px">
<path fill="rgb(99,99,99)" fill-rule="evenodd" d="M 19.67 1.69C 18.57 0.62 17.12-0 15.69-0 14.48-0 13.37 0.44 12.56 1.23 12.56 1.23 9.31 4.45 9.31 4.45 9.3 4.46 9.29 4.47 9.28 4.48 9.27 4.48 9.27 4.49 9.26 4.49 9.26 4.49 9.26 4.49 9.26 4.49 9.26 4.49 2.35 11.32 2.35 11.32 2.04 11.63 1.8 12.02 1.68 12.44 1.68 12.44 0.1 18.03 0.1 18.03 0.1 18.04-0 18.48-0 18.7-0 19.97 1.05 21 2.34 21 2.6 21 3.1 20.88 3.12 20.88 3.12 20.88 8.79 19.41 8.79 19.41 9.22 19.29 9.61 19.06 9.93 18.75 9.93 18.75 20.14 8.65 20.14 8.65 22 6.83 21.79 3.77 19.67 1.69ZM 10.71 15.62C 10.66 15.02 10.49 14.44 10.23 13.89 10.23 13.89 16.56 7.69 16.56 7.69 16.95 8.89 16.75 10.14 15.9 10.97 15.89 10.98 15.89 10.98 15.88 10.99 15.88 10.99 15.89 10.99 15.89 10.99 15.89 10.99 10.72 16.11 10.72 16.11 10.72 15.94 10.73 15.78 10.71 15.62ZM 9.9 13.29C 9.65 12.89 9.36 12.5 9.01 12.16 8.6 11.76 8.13 11.44 7.65 11.18 7.65 11.18 14.02 4.92 14.02 4.92 14.52 5.14 15 5.45 15.43 5.87 15.79 6.22 16.07 6.62 16.28 7.03 16.28 7.03 9.9 13.29 9.9 13.29ZM 7.02 10.87C 6.4 10.62 5.75 10.48 5.1 10.48 5.1 10.48 10.25 5.38 10.25 5.38 11.04 4.63 12.19 4.41 13.32 4.69 13.32 4.69 7.02 10.87 7.02 10.87ZM 2.79 19.6C 2.72 19.62 2.49 19.68 2.33 19.69 1.78 19.68 1.34 19.24 1.34 18.7 1.35 18.59 1.39 18.4 1.41 18.33 1.41 18.33 2.11 15.83 2.11 15.83 2.87 15.81 3.7 16.1 4.34 16.74 5 17.38 5.31 18.21 5.28 18.96 5.28 18.96 2.79 19.6 2.79 19.6ZM 5.94 18.79C 5.92 17.91 5.56 17 4.82 16.27 4.12 15.59 3.21 15.2 2.3 15.16 2.3 15.16 2.97 12.79 2.97 12.79 3.01 12.63 3.11 12.48 3.23 12.34 4.57 11.4 6.63 11.68 8.07 13.09 9.58 14.57 9.82 16.75 8.65 18.05 8.57 18.09 8.49 18.13 8.41 18.16 8.41 18.16 5.94 18.79 5.94 18.79ZM 19.2 7.73C 19.2 7.73 18.07 8.84 18.07 8.84 18.07 8.69 18.09 8.55 18.07 8.4 17.96 7.13 17.35 5.9 16.37 4.94 15.28 3.87 13.84 3.26 12.41 3.25 12.41 3.25 13.51 2.16 13.51 2.16 14.07 1.61 14.84 1.31 15.69 1.31 16.77 1.31 17.87 1.79 18.72 2.62 19.52 3.4 20 4.37 20.06 5.36 20.13 6.27 19.82 7.11 19.2 7.73Z"/>
</svg>