<svg xmlns="http://www.w3.org/2000/svg" xmlns:xlink="http://www.w3.org/1999/xlink" preserveAspectRatio="xMidYMid" width="91" height="50" viewBox="0 0 91 50">
  <defs>
    <style>

      .cls-2 {
        fill: #ffffff;
      }
    </style>
  </defs>
  <path d="M80.020,26.881 C77.591,27.829 72.440,29.543 65.246,30.361 C65.184,30.369 65.122,30.391 65.062,30.393 C64.092,31.078 62.004,32.346 60.969,33.000 C60.969,33.000 75.969,33.000 75.969,33.000 C79.959,33.000 81.004,33.978 80.777,34.522 C77.116,43.329 60.471,49.986 40.449,49.986 C20.427,49.986 3.589,43.417 0.123,34.530 C-0.791,32.191 2.865,33.000 3.969,33.000 C3.969,33.000 18.969,33.000 18.969,33.000 C9.402,27.332 2.333,17.577 0.121,6.834 C-0.103,5.738 0.173,4.552 0.867,3.683 C1.563,2.815 2.865,2.000 3.969,2.000 C3.969,2.000 76.969,2.000 76.969,2.000 C78.072,2.000 79.338,2.813 80.034,3.683 C80.090,3.751 80.136,3.867 80.186,3.940 C80.283,3.938 80.383,3.936 80.482,3.936 C89.158,3.936 90.980,8.473 90.980,12.278 C90.980,19.799 84.258,25.228 80.020,26.881 ZM12.969,38.000 C19.258,41.053 29.146,43.788 40.449,43.788 C51.755,43.788 61.679,41.053 67.969,38.000 C67.969,38.000 12.969,38.000 12.969,38.000 ZM6.969,8.000 C11.258,21.733 24.771,31.956 40.449,31.956 C56.128,31.956 69.681,21.733 73.969,8.000 C73.969,8.000 6.969,8.000 6.969,8.000 ZM80.482,10.106 C80.345,10.106 80.208,10.106 80.068,10.108 C78.971,14.306 76.447,18.747 73.620,22.495 C75.603,21.949 77.044,21.431 77.842,21.118 C80.306,20.158 84.907,16.576 84.907,12.276 C84.907,11.161 84.907,10.106 80.482,10.106 ZM51.453,-2.890 C51.034,-2.543 50.528,-2.358 49.995,-2.358 C49.007,-2.358 48.088,-3.016 47.759,-3.955 C47.452,-4.840 47.726,-5.800 48.460,-6.405 C50.414,-8.017 51.210,-9.546 50.895,-11.077 C50.555,-12.711 49.705,-14.215 48.801,-15.807 C48.801,-15.807 48.497,-16.341 48.497,-16.341 C46.969,-19.062 44.126,-24.129 47.591,-29.008 C48.035,-29.632 48.717,-29.990 49.469,-29.990 C50.356,-29.990 51.183,-29.487 51.575,-28.706 C51.948,-27.965 51.875,-27.102 51.378,-26.405 C49.668,-23.998 50.754,-21.689 52.746,-18.172 C53.160,-17.440 53.589,-16.682 53.958,-15.933 C54.868,-14.083 55.761,-11.851 55.461,-9.316 C55.187,-6.992 53.875,-4.889 51.453,-2.890 ZM41.877,-2.890 C41.458,-2.543 40.950,-2.358 40.418,-2.358 C39.431,-2.358 38.511,-3.016 38.183,-3.955 C37.876,-4.840 38.150,-5.800 38.884,-6.405 C40.838,-8.017 41.634,-9.546 41.319,-11.077 C40.979,-12.711 40.127,-14.215 39.224,-15.807 C39.224,-15.807 38.921,-16.341 38.921,-16.341 C37.392,-19.062 34.550,-24.129 38.015,-29.008 C38.457,-29.632 39.141,-29.990 39.893,-29.990 C40.780,-29.990 41.607,-29.487 41.999,-28.706 C42.372,-27.965 42.298,-27.102 41.802,-26.405 C40.092,-23.998 41.178,-21.689 43.170,-18.172 C43.581,-17.440 44.012,-16.682 44.381,-15.933 C45.292,-14.083 46.184,-11.851 45.885,-9.316 C45.610,-6.992 44.298,-4.889 41.877,-2.890 ZM32.301,-2.890 C31.882,-2.543 31.374,-2.358 30.842,-2.358 C29.855,-2.358 28.935,-3.016 28.606,-3.955 C28.299,-4.840 28.574,-5.800 29.308,-6.405 C31.259,-8.017 32.057,-9.546 31.741,-11.077 C31.402,-12.711 30.550,-14.215 29.648,-15.807 C29.648,-15.807 29.345,-16.341 29.345,-16.341 C27.816,-19.062 24.972,-24.129 28.438,-29.008 C28.881,-29.632 29.565,-29.990 30.317,-29.990 C31.202,-29.990 32.030,-29.487 32.423,-28.706 C32.796,-27.965 32.722,-27.102 32.226,-26.405 C30.516,-23.998 31.601,-21.689 33.594,-18.172 C34.007,-17.440 34.436,-16.682 34.805,-15.933 C35.717,-14.083 36.608,-11.851 36.309,-9.316 C36.034,-6.992 34.722,-4.889 32.301,-2.890 Z" id="path-1" class="cls-2" fill-rule="evenodd"/>
</svg>
